<svg xmlns="http://www.w3.org/2000/svg" version="1.1" xmlns:xlink="http://www.w3.org/1999/xlink" xmlns:svgjs="http://svgjs.dev/svgjs" width="1000" height="1000" viewBox="0 0 1000 1000"><rect width="1000" height="1000" fill="#000000"></rect><g transform="matrix(0.7,0,0,0.7,149.57575757575756,282.1265587044535)"><svg viewBox="0 0 396 247" data-background-color="#211e1e" preserveAspectRatio="xMidYMid meet" height="623" width="1000" xmlns="http://www.w3.org/2000/svg" xmlns:xlink="http://www.w3.org/1999/xlink"><g id="tight-bounds" transform="matrix(1,0,0,1,0.2400000000000091,-0.09999999999999432)"><svg viewBox="0 0 395.52 247.2" height="247.2" width="395.52"><g><svg viewBox="0 0 395.52 247.2" height="247.2" width="395.52"><g transform="matrix(1,0,0,1,2.842170943040401e-14,70.01197278911565)"><svg viewBox="0 0 395.5199999999999 107.1760544217687" height="107.1760544217687" width="395.5199999999999"><g><svg viewBox="0 0 395.5199999999999 107.1760544217687" height="107.1760544217687" width="395.5199999999999"><g><svg viewBox="0 0 395.5199999999999 107.1760544217687" height="107.1760544217687" width="395.5199999999999"><g><svg viewBox="0 0 395.5199999999999 107.1760544217687" height="107.1760544217687" width="395.5199999999999"><g><svg viewBox="0 0 395.5199999999999 107.1760544217687" height="107.1760544217687" width="395.5199999999999"><g><svg viewBox="0 0 395.5199999999999 107.1760544217687" height="107.1760544217687" width="395.5199999999999"><g transform="matrix(1,0,0,1,0,0)"><svg width="395.5199999999999" viewBox="3.25 -36.599998474121094 176.3800048828125 47.79999923706055" height="107.1760544217687" data-palette-color="#ffffff"><path d="M6.25 0.6L6.25 0.6Q5 0.6 4.13-0.28 3.25-1.15 3.25-2.5L3.25-2.5Q3.25-3.95 4.13-4.83 5-5.7 6.25-5.7L6.25-5.7Q7.45-5.7 8.33-4.83 9.2-3.95 9.2-2.5L9.2-2.5Q9.2-1.15 8.33-0.28 7.45 0.6 6.25 0.6ZM20.9 0.6L20.9 0.6Q18.55 0.6 17.55-0.8 16.55-2.2 16.55-4.9L16.55-4.9 16.55-35.6 20.65-35.6 20.65-4.6Q20.65-3.6 21-3.2 21.35-2.8 21.8-2.8L21.8-2.8Q22-2.8 22.17-2.8 22.35-2.8 22.7-2.9L22.7-2.9 23.25 0.2Q22.85 0.4 22.3 0.5 21.75 0.6 20.9 0.6ZM38.75 0.6L38.75 0.6Q36.5 0.6 34.47-0.25 32.45-1.1 30.89-2.73 29.34-4.35 28.42-6.73 27.5-9.1 27.5-12.1L27.5-12.1Q27.5-15.15 28.42-17.53 29.34-19.9 30.89-21.55 32.45-23.2 34.47-24.05 36.5-24.9 38.75-24.9L38.75-24.9Q41-24.9 43.02-24.05 45.05-23.2 46.59-21.55 48.15-19.9 49.07-17.53 50-15.15 50-12.1L50-12.1Q50-9.1 49.07-6.73 48.15-4.35 46.59-2.73 45.05-1.1 43.02-0.25 41 0.6 38.75 0.6ZM38.75-2.8L38.75-2.8Q40.3-2.8 41.59-3.48 42.89-4.15 43.82-5.38 44.75-6.6 45.25-8.3 45.75-10 45.75-12.1L45.75-12.1Q45.75-14.2 45.25-15.93 44.75-17.65 43.82-18.9 42.89-20.15 41.59-20.83 40.3-21.5 38.75-21.5L38.75-21.5Q37.2-21.5 35.9-20.83 34.59-20.15 33.67-18.9 32.75-17.65 32.25-15.93 31.75-14.2 31.75-12.1L31.75-12.1Q31.75-10 32.25-8.3 32.75-6.6 33.67-5.38 34.59-4.15 35.9-3.48 37.2-2.8 38.75-2.8ZM64.59 11.2L64.59 11.2Q62.34 11.2 60.49 10.78 58.64 10.35 57.32 9.5 55.99 8.65 55.27 7.45 54.54 6.25 54.54 4.65L54.54 4.65Q54.54 3.1 55.49 1.7 56.44 0.3 58.09-0.85L58.09-0.85 58.09-1.05Q57.19-1.6 56.57-2.58 55.94-3.55 55.94-5L55.94-5Q55.94-6.55 56.79-7.7 57.64-8.85 58.59-9.5L58.59-9.5 58.59-9.7Q57.39-10.7 56.42-12.38 55.44-14.05 55.44-16.25L55.44-16.25Q55.44-18.25 56.17-19.85 56.89-21.45 58.14-22.58 59.39-23.7 61.07-24.3 62.74-24.9 64.59-24.9L64.59-24.9Q65.59-24.9 66.47-24.73 67.34-24.55 68.04-24.3L68.04-24.3 76.49-24.3 76.49-21.15 71.49-21.15Q72.34-20.3 72.92-19 73.49-17.7 73.49-16.15L73.49-16.15Q73.49-14.2 72.79-12.63 72.09-11.05 70.89-9.98 69.69-8.9 68.07-8.3 66.44-7.7 64.59-7.7L64.59-7.7Q63.69-7.7 62.74-7.93 61.79-8.15 60.94-8.55L60.94-8.55Q60.29-8 59.84-7.33 59.39-6.65 59.39-5.65L59.39-5.65Q59.39-4.5 60.29-3.75 61.19-3 63.69-3L63.69-3 68.39-3Q72.64-3 74.77-1.63 76.89-0.25 76.89 2.8L76.89 2.8Q76.89 4.5 76.04 6.03 75.19 7.55 73.59 8.7 71.99 9.85 69.72 10.53 67.44 11.2 64.59 11.2ZM64.59-10.45L64.59-10.45Q65.64-10.45 66.57-10.85 67.49-11.25 68.22-12 68.94-12.75 69.34-13.83 69.74-14.9 69.74-16.25L69.74-16.25Q69.74-18.95 68.24-20.43 66.74-21.9 64.59-21.9L64.59-21.9Q62.44-21.9 60.94-20.43 59.44-18.95 59.44-16.25L59.44-16.25Q59.44-14.9 59.84-13.83 60.24-12.75 60.97-12 61.69-11.25 62.62-10.85 63.54-10.45 64.59-10.45ZM65.19 8.35L65.19 8.35Q66.94 8.35 68.37 7.93 69.79 7.5 70.79 6.83 71.79 6.15 72.34 5.25 72.89 4.35 72.89 3.4L72.89 3.4Q72.89 1.7 71.64 1.05 70.39 0.4 67.99 0.4L67.99 0.4 63.79 0.4Q63.09 0.4 62.27 0.33 61.44 0.25 60.64 0L60.64 0Q59.34 0.95 58.74 2 58.14 3.05 58.14 4.1L58.14 4.1Q58.14 6.05 60.02 7.2 61.89 8.35 65.19 8.35ZM90.74 7.6L88.19 8.8Q85.09 3.8 83.34-1.75 81.59-7.3 81.59-13.9L81.59-13.9Q81.59-20.5 83.34-26.03 85.09-31.55 88.19-36.6L88.19-36.6 90.74-35.4Q87.84-30.6 86.42-25.13 84.99-19.65 84.99-13.9L84.99-13.9Q84.99-8.15 86.42-2.68 87.84 2.8 90.74 7.6L90.74 7.6ZM100.09-21.55L97.59-21.55 96.79-29.9 96.64-34.5 101.04-34.5 100.89-29.9 100.09-21.55ZM113.74 0L109.59 0 109.59-32.8 128.49-32.8 128.49-29.3 113.74-29.3 113.74-18.2 126.24-18.2 126.24-14.7 113.74-14.7 113.74 0ZM153.68 0L134.28 0 134.28-32.8 153.18-32.8 153.18-29.3 138.43-29.3 138.43-19 150.88-19 150.88-15.45 138.43-15.45 138.43-3.55 153.68-3.55 153.68 0ZM163.58-21.55L161.08-21.55 160.28-29.9 160.13-34.5 164.53-34.5 164.38-29.9 163.58-21.55ZM173.03 8.8L173.03 8.8 170.48 7.6Q173.38 2.8 174.8-2.68 176.23-8.15 176.23-13.9L176.23-13.9Q176.23-19.65 174.8-25.13 173.38-30.6 170.48-35.4L170.48-35.4 173.03-36.6Q176.13-31.55 177.88-26.03 179.63-20.5 179.63-13.9L179.63-13.9Q179.63-7.3 177.88-1.75 176.13 3.8 173.03 8.8Z" opacity="1" transform="matrix(1,0,0,1,0,0)" fill="#ffffff" class="undefined-text-0" data-fill-palette-color="primary" id="text-0"></path></svg></g></svg></g></svg></g></svg></g></svg></g></svg></g></svg></g></svg></g><defs></defs></svg><rect width="395.52" height="247.2" fill="none" stroke="none" visibility="hidden"></rect></g></svg></g></svg>